<?xml version="1.0" standalone="no"?>
<!DOCTYPE svg PUBLIC "-//W3C//DTD SVG 20010904//EN"
 "http://www.w3.org/TR/2001/REC-SVG-20010904/DTD/svg10.dtd">
<svg version="1.0" xmlns="http://www.w3.org/2000/svg"
 width="260.000000pt" height="260.000000pt" viewBox="0 0 260.000000 260.000000"
 preserveAspectRatio="xMidYMid meet">
<metadata>
Created by potrace 1.11, written by Peter Selinger 2001-2013
</metadata>
<g transform="translate(0.000000,260.000000) scale(0.100000,-0.100000)"
fill="#000000" stroke="none">
<path d="M1085 2365 c-44 -7 -100 -18 -125 -25 -25 -8 -50 -14 -55 -15 -25 -5
-125 -52 -180 -84 -78 -45 -175 -142 -209 -209 -70 -139 -67 -291 10 -413 24
-38 142 -159 155 -159 4 0 14 -6 21 -13 14 -13 59 -44 93 -63 150 -84 239
-134 241 -134 2 0 38 -21 81 -47 206 -124 293 -228 298 -357 5 -122 -37 -220
-134 -317 -89 -88 -179 -136 -311 -165 -31 -7 -44 -12 -29 -13 41 -2 237 57
319 96 296 140 488 391 503 659 7 125 -40 269 -118 359 l-34 41 150 0 c101 1
149 -3 148 -10 -1 -6 -1 -246 0 -533 l1 -523 135 0 135 0 0 533 0 533 183 -1
c100 -1 188 1 195 3 8 3 12 35 12 112 0 77 -4 109 -12 112 -7 2 -219 4 -470 4
-252 -1 -458 1 -458 3 0 3 17 21 39 40 88 81 120 176 98 294 -24 136 -149 238
-347 284 -8 2 -44 6 -80 9 -36 3 -77 7 -92 9 -46 6 -32 -10 20 -24 94 -24 155
-113 155 -226 0 -36 -6 -72 -16 -92 -20 -37 -84 -93 -108 -93 -10 0 -19 -11
-22 -27 -20 -107 70 -203 193 -206 l50 -2 0 -62 0 -62 -57 38 c-32 21 -119 68
-193 106 -315 158 -400 235 -400 361 0 139 126 264 277 276 17 1 29 6 27 10
-3 4 -6 7 -7 7 -1 -1 -38 -7 -82 -14z"/>
<path d="M453 1359 c-341 -63 -502 -454 -307 -747 32 -49 51 -68 132 -139 47
-40 194 -103 277 -118 17 -3 55 -7 85 -10 48 -4 45 -3 -20 10 -284 54 -450
243 -456 520 -4 151 36 268 124 366 113 126 306 141 390 31 23 -30 27 -45 27
-101 0 -109 -57 -186 -159 -213 -39 -10 -46 -16 -47 -38 -4 -86 20 -139 80
-182 118 -84 314 -40 397 89 82 128 61 286 -54 399 -51 50 -159 106 -237 125
-62 14 -176 18 -232 8z"/>
<path d="M815 340 c3 -5 8 -10 11 -10 2 0 4 5 4 10 0 6 -5 10 -11 10 -5 0 -7
-4 -4 -10z"/>
</g>
</svg>
