<?xml version="1.0" encoding="UTF-8"?>
<svg width="18px" height="31px" viewBox="0 0 18 31" version="1.1" xmlns="http://www.w3.org/2000/svg" xmlns:xlink="http://www.w3.org/1999/xlink">
    <!-- Generator: Sketch 43.2 (39069) - http://www.bohemiancoding.com/sketch -->
    <title>price-ribbon</title>
    <desc>Created with Sketch.</desc>
    <defs></defs>
    <g id="desktop" stroke="none" stroke-width="1" fill="none" fill-rule="evenodd">
        <g id="Desktop-HD" transform="translate(-731.000000, -799.000000)" fill-rule="nonzero" fill="#292929">
            <g id="price-ribbon" transform="translate(731.000000, 799.000000)">
                <path d="M13.67875,16.51215 C13.86165,16.11225 14.3685,15.7418 14.8056,15.6922 C15.2427,15.6426 15.64105,15.2427 15.69065,14.8056 C15.74335,14.3716 16.11225,13.8632 16.5106,13.67875 C16.9105,13.4943 17.16625,12.9921 17.08255,12.56275 C16.99265,12.13185 17.18795,11.5351 17.51035,11.23905 C17.8343,10.93835 17.92265,10.3819 17.7072,9.9975 C17.49175,9.6162 17.49175,8.98845 17.7072,8.60715 C17.92265,8.2212 17.8343,7.66475 17.51035,7.3656 C17.18795,7.06645 16.9942,6.47125 17.08255,6.0419 C17.16625,5.611 16.9105,5.10725 16.5106,4.9228 C16.1138,4.73835 15.74335,4.23305 15.69065,3.79595 C15.6395,3.36195 15.24115,2.96205 14.8056,2.90935 C14.3685,2.8582 13.86165,2.48775 13.67875,2.09095 C13.49275,1.69105 12.99055,1.4353 12.55965,1.52365 C12.12875,1.6089 11.53355,1.41515 11.23595,1.09275 C10.9368,0.76725 10.3788,0.68045 9.99595,0.8959 C9.6131,1.11135 8.98535,1.11135 8.60405,0.8959 C8.2212,0.67735 7.66475,0.76415 7.3625,1.08965 C7.06645,1.41205 6.47125,1.6058 6.0388,1.52055 C5.60945,1.43375 5.1057,1.6895 4.9228,2.0894 C4.73835,2.4862 4.2315,2.85665 3.7944,2.90625 C3.3573,2.9605 2.95895,3.35885 2.9078,3.7944 C2.8551,4.22995 2.48775,4.7368 2.08785,4.9197 C1.69105,5.10415 1.43375,5.6079 1.52055,6.0388 C1.6058,6.46815 1.41205,7.0649 1.08965,7.3625 C0.76725,7.6601 0.67735,8.2181 0.8928,8.60405 C1.10825,8.98535 1.10825,9.6131 0.8928,9.9944 C0.67735,10.3788 0.7657,10.93525 1.08965,11.2375 C1.4136,11.532 1.6058,12.12875 1.52055,12.5612 C1.43375,12.99055 1.69105,13.4943 2.08785,13.6772 C2.48775,13.86165 2.8551,14.37005 2.90625,14.80405 C2.95895,15.24115 3.35575,15.64105 3.79285,15.69065 C4.22995,15.74025 4.7368,16.11225 4.92125,16.5106 C5.10415,16.9074 5.6079,17.16315 6.03725,17.0779 C6.46815,16.99265 7.0649,17.18485 7.36095,17.5088 C7.66165,17.8312 8.2181,17.9211 8.6025,17.70565 C8.9838,17.4902 9.61155,17.4902 9.9944,17.70565 C10.37725,17.9211 10.93525,17.8312 11.2344,17.5088 C11.53355,17.1833 12.1272,16.99265 12.5581,17.0779 C12.99055,17.1647 13.4943,16.90895 13.67875,16.51215 Z M9.3,14.56845 C6.3891,14.56845 4.03,12.2078 4.03,9.3 C4.03,6.3891 6.3891,4.02845 9.3,4.02845 C12.2109,4.02845 14.57,6.3891 14.57,9.3 C14.57,12.2078 12.20935,14.56845 9.3,14.56845 Z M3.06125,17.68395 L1.1346,28.6099 L5.983,27.8907 L10.29355,30.225 L12.21245,19.34245 C11.2871,19.6106 10.3106,19.7625 9.29845,19.7625 C6.9595,19.7625 4.805,18.9844 3.06125,17.68395 Z M15.43955,17.75835 C14.9575,18.10865 14.44445,18.41865 13.90505,18.6837 L12.74565,25.2495 L17.9676,22.4161 L15.43955,17.75835 Z" id="Shape"></path>
            </g>
        </g>
    </g>
</svg>